<svg width="156" height="166" viewBox="0 0 156 166" fill="none" xmlns="http://www.w3.org/2000/svg">
<ellipse cx="77.6827" cy="84.1003" rx="70.6207" ry="75.0896" fill="#FA8E11"/>
<path d="M55.6996 115.255L53.6189 117.468L52.3009 116.038L54.3682 113.84C54.9703 113.199 55.3428 112.524 55.4855 111.812C55.6327 111.096 55.5636 110.368 55.2781 109.628C54.9971 108.884 54.5176 108.151 53.8397 107.43L53.3111 106.868C52.7848 106.308 52.2585 105.877 51.7322 105.573C51.2103 105.265 50.6952 105.087 50.1867 105.04C49.6827 104.988 49.1921 105.064 48.7148 105.267C48.242 105.467 47.7893 105.796 47.3567 106.256L45.1756 108.575L43.8375 107.153L46.0186 104.834C46.6653 104.146 47.3656 103.634 48.1194 103.297C48.8687 102.956 49.6403 102.794 50.4342 102.813C51.2326 102.827 52.0199 103.024 52.796 103.404C53.572 103.783 54.3102 104.345 55.0105 105.09L55.5256 105.637C56.2259 106.382 56.7545 107.167 57.1113 107.992C57.4681 108.817 57.6532 109.654 57.6666 110.503C57.6755 111.347 57.5172 112.175 57.1916 112.986C56.866 113.787 56.3686 114.544 55.6996 115.255ZM44.8076 106.121L54.5488 116.479L52.8696 118.264L43.1283 107.907L44.8076 106.121ZM58.0878 105.19L57.9339 105.026C57.4121 104.471 57.004 103.876 56.7096 103.24C56.4107 102.6 56.239 101.953 56.1944 101.298C56.1498 100.634 56.2435 99.9846 56.4754 99.3491C56.7073 98.7041 57.0865 98.1018 57.6128 97.5422C58.1436 96.9778 58.71 96.5747 59.3121 96.3329C59.9143 96.0815 60.5276 95.9795 61.152 96.027C61.772 96.0697 62.383 96.2499 62.9852 96.5676C63.5829 96.8806 64.1426 97.3146 64.6645 97.8694L64.8184 98.0331C65.3402 98.5879 65.7483 99.1831 66.0427 99.8186C66.3371 100.454 66.5066 101.104 66.5512 101.768C66.5913 102.427 66.4976 103.077 66.2702 103.717C66.0382 104.352 65.6591 104.95 65.1328 105.51C64.602 106.074 64.0356 106.482 63.4334 106.733C62.8313 106.975 62.2202 107.075 61.6003 107.032C60.9758 106.985 60.3648 106.804 59.7671 106.491C59.1694 106.178 58.6097 105.744 58.0878 105.19ZM59.5463 103.311L59.7002 103.475C60.0258 103.821 60.367 104.113 60.7238 104.35C61.0806 104.587 61.4397 104.746 61.801 104.827C62.1623 104.907 62.5169 104.895 62.8648 104.791C63.2127 104.687 63.5405 104.471 63.8482 104.144C64.1471 103.826 64.3433 103.485 64.437 103.119C64.5351 102.749 64.5463 102.372 64.4705 101.988C64.3946 101.604 64.2452 101.222 64.0222 100.843C63.8036 100.459 63.5316 100.094 63.206 99.7475L63.0521 99.5839C62.7309 99.2424 62.392 98.9578 62.0351 98.7302C61.6783 98.4931 61.3148 98.3342 60.9446 98.2536C60.5789 98.1682 60.222 98.1777 59.8741 98.282C59.5262 98.3769 59.2006 98.5856 58.8973 98.908C58.594 99.2305 58.3956 99.5791 58.3019 99.9538C58.2082 100.319 58.2015 100.696 58.2818 101.085C58.3621 101.474 58.5138 101.858 58.7368 102.237C58.9553 102.612 59.2252 102.97 59.5463 103.311ZM65.8886 92.3139L71.5821 98.3677L69.9697 100.082L62.7307 92.385L64.2494 90.7702L65.8886 92.3139ZM67.4073 94.5405L66.8787 95.0882C66.3703 94.5381 65.9711 93.9619 65.6812 93.3596C65.3957 92.7525 65.224 92.1526 65.166 91.5598C65.1125 90.9622 65.1794 90.3884 65.3667 89.8383C65.5496 89.2834 65.8573 88.7759 66.29 88.3159C66.6379 87.946 67.0014 87.6638 67.3805 87.4694C67.7596 87.2655 68.1566 87.1706 68.5714 87.1848C68.9907 87.1943 69.4256 87.3247 69.876 87.5761C70.3221 87.8227 70.7926 88.2092 71.2877 88.7356L75.9643 93.7082L74.3452 95.4297L69.6619 90.4501C69.314 90.0801 68.9884 89.843 68.6851 89.7387C68.3818 89.6249 68.0919 89.6249 67.8154 89.7387C67.5389 89.843 67.2601 90.0446 66.9791 90.3433C66.7026 90.6374 66.513 90.9622 66.4104 91.3179C66.3078 91.6736 66.2811 92.0388 66.3301 92.4135C66.3836 92.7834 66.5018 93.1509 66.6847 93.5161C66.8676 93.8813 67.1084 94.2227 67.4073 94.5405ZM80.5135 85.7837L77.0613 82.113C76.8026 81.8379 76.5327 81.6506 76.2517 81.551C75.9707 81.4514 75.683 81.449 75.3887 81.5439C75.0988 81.634 74.8111 81.8308 74.5256 82.1343C74.2625 82.4141 74.0796 82.7034 73.977 83.0022C73.8744 83.301 73.8454 83.5879 73.89 83.863C73.9346 84.138 74.0528 84.3775 74.2446 84.5815L72.6389 86.2888C72.3535 85.9853 72.1461 85.6177 72.0167 85.1861C71.8874 84.7546 71.8494 84.2874 71.903 83.7847C71.9565 83.282 72.1059 82.7722 72.3512 82.2553C72.5965 81.7383 72.9467 81.238 73.4016 80.7543C73.9458 80.1757 74.5189 79.7607 75.1211 79.5093C75.7277 79.2532 76.3365 79.194 76.9475 79.3315C77.5586 79.4595 78.1407 79.8176 78.6937 80.4057L81.9118 83.8274C82.2419 84.1784 82.5608 84.47 82.8685 84.7024C83.1763 84.9253 83.4707 85.0913 83.7517 85.2004L83.8587 85.3142L82.2062 87.0713C81.9564 86.967 81.6754 86.7962 81.3632 86.5591C81.051 86.3125 80.7678 86.054 80.5135 85.7837ZM77.7972 82.3975L78.8075 83.4433L77.65 84.6739C77.3512 84.9917 77.117 85.3023 76.9475 85.6059C76.7736 85.9046 76.6643 86.1916 76.6197 86.4666C76.5751 86.7417 76.5907 87.0002 76.6665 87.242C76.7424 87.4839 76.8762 87.7068 77.068 87.9107C77.2598 88.1146 77.4805 88.2545 77.7303 88.3304C77.9756 88.4016 78.2276 88.3945 78.4863 88.3091C78.7495 88.219 79.0037 88.0435 79.249 87.7827C79.5791 87.4317 79.7999 87.0547 79.9114 86.6516C80.0229 86.239 80.0519 85.8525 79.9984 85.492C79.9404 85.1269 79.8266 84.8447 79.6572 84.6455L80.8949 84.8518C81.0242 85.1031 81.129 85.409 81.2093 85.7695C81.2896 86.1299 81.3208 86.5235 81.303 86.9504C81.2852 87.3677 81.1915 87.7945 81.022 88.2308C80.857 88.6624 80.5871 89.0774 80.2125 89.4757C79.7397 89.9785 79.2245 90.327 78.667 90.5215C78.105 90.7112 77.5586 90.7467 77.0278 90.6282C76.4926 90.5049 76.0198 90.2251 75.6095 89.7888C75.2259 89.3809 74.9583 88.9446 74.8066 88.4798C74.655 88.0056 74.6193 87.5123 74.6996 87.0002C74.7843 86.4832 74.9806 85.9521 75.2883 85.4067C75.5916 84.8565 76.0064 84.3017 76.5327 83.742L77.7972 82.3975ZM81.6239 72.2963L82.8014 73.5483L78.7202 77.8877L77.5427 76.6357L81.6239 72.2963ZM76.9473 73.4985L78.5597 71.7841L85.5712 79.2393C85.7942 79.4764 85.9972 79.6258 86.18 79.6875C86.3629 79.7396 86.5324 79.7254 86.6885 79.6448C86.8446 79.5642 87.0007 79.4409 87.1568 79.2749C87.2683 79.1563 87.3687 79.0354 87.4579 78.9121C87.5471 78.7888 87.6162 78.6868 87.6653 78.6062L88.903 79.908C88.8094 80.093 88.6889 80.2969 88.5417 80.5198C88.399 80.7379 88.2139 80.968 87.9864 81.2098C87.6162 81.6035 87.2237 81.8833 86.8089 82.0492C86.3897 82.2105 85.9503 82.2176 85.4909 82.0706C85.0315 81.9236 84.5543 81.5869 84.0592 81.0604L76.9473 73.4985ZM93.7065 75.1278C93.1712 75.6969 92.6003 76.119 91.9937 76.3941C91.3871 76.6597 90.7738 76.7853 90.1539 76.7711C89.5384 76.7521 88.9362 76.6004 88.3475 76.3158C87.7587 76.0313 87.2168 75.6258 86.7217 75.0994L86.4541 74.8148C85.8876 74.2125 85.4572 73.5794 85.1628 72.9154C84.8684 72.2515 84.7056 71.5899 84.6744 70.9307C84.6387 70.2667 84.7346 69.6289 84.9621 69.0171C85.1896 68.4053 85.5375 67.8504 86.0058 67.3525C86.5232 66.8023 87.0629 66.4134 87.6249 66.1858C88.1869 65.9582 88.7533 65.8775 89.3243 65.9439C89.8952 66.0008 90.4594 66.1929 91.0169 66.5202C91.5789 66.8426 92.1208 67.2813 92.6427 67.8362L93.3318 68.5689L87.7386 74.516L86.5812 73.2854L90.5821 69.0313L90.4549 68.8962C90.1561 68.5974 89.826 68.3697 89.4648 68.2132C89.1079 68.052 88.7444 68.0022 88.3742 68.0638C88.004 68.1255 87.6405 68.346 87.2837 68.7254C87.0161 69.01 86.8354 69.3254 86.7418 69.6716C86.6481 70.0083 86.6392 70.364 86.715 70.7386C86.7908 71.1133 86.9425 71.5022 87.1699 71.9053C87.3974 72.2989 87.6985 72.6949 88.0732 73.0933L88.3408 73.3778C88.6574 73.7146 88.9942 73.9825 89.351 74.1817C89.7078 74.3714 90.0714 74.4828 90.4416 74.516C90.8118 74.5492 91.1753 74.4994 91.5321 74.3667C91.8845 74.2291 92.2145 73.9967 92.5223 73.6695C92.9103 73.2569 93.1779 72.8064 93.3251 72.3179C93.4723 71.8294 93.5147 71.3148 93.4522 70.7742L95.1248 70.7457C95.1962 71.1536 95.2118 71.6018 95.1717 72.0902C95.1271 72.574 94.9888 73.0767 94.7569 73.5984C94.5294 74.1153 94.1793 74.6251 93.7065 75.1278ZM93.8063 54.0218L100.517 61.4984L99.1386 62.9638L92.1002 55.8358L93.8063 54.0218ZM101.032 65.4323C100.787 65.1715 100.662 64.868 100.657 64.5217C100.653 64.1661 100.796 63.8341 101.085 63.5258C101.371 63.2223 101.681 63.0729 102.015 63.0777C102.345 63.0777 102.633 63.2081 102.878 63.4689C103.115 63.7203 103.235 64.0238 103.24 64.3795C103.24 64.7304 103.097 65.0577 102.812 65.3612C102.522 65.6694 102.212 65.8236 101.882 65.8236C101.552 65.8141 101.268 65.6837 101.032 65.4323Z" fill="white"/>
<path d="M18.712 63.6674L16.5734 101.186L55.6012 142.683L95.6983 145.525L134.726 104.028L134.191 59.1198L95.1636 17.6223L57.7397 22.17L18.712 63.6674Z" stroke="white"/>
</svg>
