<svg width="174" height="114" viewBox="0 0 174 114" fill="none" xmlns="http://www.w3.org/2000/svg">
<path d="M145.58 48.2318C147.677 44.7648 153.578 47.3441 151.447 50.7968C141.899 66.2453 123.923 75.3781 105.772 72.8957C105.192 79.9623 101.358 85.2248 93.7817 88.6007C85.321 92.3684 75.6321 92.7161 66.5725 91.321C43.9061 87.8255 22.9101 75.0161 7.70103 58.4576C6.11618 56.7305 9.09448 54.6899 10.6735 56.3558C21.7037 67.9823 35.412 76.9997 50.6138 82.4603C64.1539 87.3224 82.231 90.6156 95.0113 81.9516C98.7813 79.3866 100.115 75.7158 100.215 71.7515C91.6763 69.4515 83.8753 64.9115 77.9332 58.4291C72.3841 52.37 68.2023 42.6929 74.9767 35.8543C80.9608 29.8152 89.1591 33.9006 93.7861 39.2743C100.27 46.8083 104.226 57.0483 105.547 66.7682C121.203 69.2663 137.351 61.8449 145.58 48.2318ZM86.2287 40.3274C82.9821 38.0787 79.2281 38.5191 77.9347 42.6074C76.6152 46.7798 79.4282 50.8838 82.0599 53.929C86.6173 59.2015 92.8537 63.0746 99.5063 65.2791C99.0496 63.1986 98.4348 61.1594 97.8214 59.2742C95.7001 52.7605 92.1403 44.4271 86.2287 40.3274Z" fill="#FA8E11"/>
<path d="M162.486 44.0272C157.59 54.3371 152.364 64.7096 146.268 74.3896C144.918 76.5271 141.824 74.317 142.62 72.2023C145.982 63.2775 150.044 54.508 154.198 45.8754C146.242 45.9736 138.341 47.1979 130.74 49.5106C126.845 50.6919 124.593 44.8665 128.524 43.6339C138.767 40.4205 149.232 39.0739 159.969 39.4543C162.14 39.5313 163.308 42.2958 162.486 44.0272Z" fill="#FA8E11"/>
</svg>
